<?xml version="1.0" encoding="iso-8859-1"?>
<!-- Uploaded to: SVG Repo, www.svgrepo.com, Generator: SVG Repo Mixer Tools -->
<svg height="800px" width="800px" version="1.1" id="Layer_1" xmlns="http://www.w3.org/2000/svg"
     viewBox="0 0 512 512" xml:space="preserve">
<path style="fill:#FFCD54;" d="M0,256.006C0,397.402,114.606,512.004,255.996,512C397.394,512.004,512,397.402,512,256.006
	C512.009,114.61,397.394,0,255.996,0C114.606,0,0,114.614,0,256.006z"/>
<path style="fill:#F4BA41;" d="M511.679,268.685l-0.745-0.755c-0.035-0.036-0.08-0.06-0.116-0.096
	c0,0-167.168-167.168-167.204-167.203c0,0-3.149-3.15-3.185-3.185l-1.476-1.498c-5.402-5.483-12.896-8.627-20.563-8.627H151.495
	c-16.005,0-29.033,13.158-29.033,29.328v76.096c0,2.356,1.232,4.338,3.008,5.612c0.447,0.625,16.893,17.07,17.517,17.518
	c0.195,0.271,0.329,0.589,0.559,0.83v46.324H129.49c-3.885,0-7.028,3.143-7.028,7.028V395.35c0,8.514,3.67,16.126,9.428,21.489
	c0.511,0.555,91.808,91.845,92.361,92.359c0.284,0.307,0.588,0.591,0.883,0.883c10.125,1.216,20.41,1.917,30.863,1.917
	C393.142,512.004,505.07,404.188,511.679,268.685z"/>
<path style="fill:#F6F6F6;" d="M382.509,199.774c3.885,0,7.028-3.143,7.028-7.028v-33.419c0-7.818-3.006-15.168-8.469-20.701
	l-42.115-42.677c-5.402-5.484-12.897-8.627-20.563-8.627H151.495c-16.005,0-29.033,13.157-29.033,29.328v76.096
	c0,3.885,3.143,7.028,7.028,7.028h14.057v63.254h-14.057c-3.885,0-7.028,3.143-7.028,7.028V395.35
	c0,16.171,13.027,29.328,29.033,29.328h69.363c3.885,0,7.028-3.143,7.028-7.028v-14.057h56.226v14.057
	c0,3.885,3.143,7.028,7.028,7.028h69.363c16.005,0,29.033-13.157,29.033-29.328V241.943c0-3.885-3.143-7.028-7.028-7.028h-14.057
	v-35.141H382.509z M298.17,129.491h-21.085v-28.113h21.085V129.491z M248.972,129.491v-28.113h14.057v28.113H248.972z
	 M213.83,129.491v-28.113h21.085v28.113H213.83z M178.689,129.491v-28.113h21.085v28.113H178.689z M361.424,248.972h14.057V395.35
	c0,8.421-6.719,15.271-14.976,15.271H298.17v-14.057c0-3.885-3.143-7.028-7.028-7.028h-70.283c-3.885,0-7.028,3.143-7.028,7.028
	v14.057h-62.335c-8.257,0-14.976-6.85-14.976-15.271V277.085h14.057c3.885,0,7.028-3.143,7.028-7.028v-77.311
	c0-3.885-3.143-7.028-7.028-7.028h-14.057V116.65c0-8.421,6.719-15.271,14.976-15.271h13.137v35.141
	c0,3.885,3.143,7.028,7.028,7.028h133.537c3.885,0,7.028-3.143,7.028-7.028v-35.141h6.163c3.987,0,7.735,1.579,10.556,4.441
	l42.115,42.677c2.807,2.848,4.42,6.795,4.42,10.831v26.39h-14.057c-3.885,0-7.028,3.143-7.028,7.028v49.198
	C354.396,245.828,357.539,248.972,361.424,248.972z"/>
</svg>